<svg xmlns="http://www.w3.org/2000/svg" viewBox="0 0 64 64">
  <defs>
    <linearGradient id="arrow" x1="0" y1="1" x2="0" y2="0">
      <stop offset="0" stop-color="#0ea5e9" />
      <stop offset="1" stop-color="#22c55e" />
    </linearGradient>
    <filter id="shadow" x="-20%" y="-20%" width="140%" height="160%" color-interpolation-filters="sRGB">
      <feDropShadow dx="0" dy="2" stdDeviation="2" flood-color="#0f172a" flood-opacity=".5" />
    </filter>
  </defs>
  <rect x="6" y="6" width="52" height="52" rx="10" fill="#0d1117" stroke="#1f2937" stroke-width="1.5" />
  <g stroke="#060809" stroke-width="1.5">
    <rect x="13" y="14" width="8" height="8" rx="1.5" fill="#6aaa64" />
    <rect x="23" y="14" width="8" height="8" rx="1.5" fill="#c9b458" />
    <rect x="33" y="14" width="8" height="8" rx="1.5" fill="#3a3a3c" />
    <rect x="43" y="14" width="8" height="8" rx="1.5" fill="#3a3a3c" />

    <rect x="13" y="24" width="8" height="8" rx="1.5" fill="#3a3a3c" />
    <rect x="23" y="24" width="8" height="8" rx="1.5" fill="#6aaa64" />
    <rect x="33" y="24" width="8" height="8" rx="1.5" fill="#c9b458" />
    <rect x="43" y="24" width="8" height="8" rx="1.5" fill="#3a3a3c" />

    <rect x="13" y="34" width="8" height="8" rx="1.5" fill="#3a3a3c" />
    <rect x="23" y="34" width="8" height="8" rx="1.5" fill="#3a3a3c" />
    <rect x="33" y="34" width="8" height="8" rx="1.5" fill="#6aaa64" />
    <rect x="43" y="34" width="8" height="8" rx="1.5" fill="#c9b458" />
  </g>
  <path
    d="M32 15c.6 0 1.2.27 1.6.74l7.4 8.11c.82.9.18 2.33-.99 2.33h-3.15v14.96a2 2 0 0 1-2 2h-5.72a2 2 0 0 1-2-2V26.18h-3.12c-1.18 0-1.82-1.43-1-2.33l7.38-8.1c.38-.42.94-.75 1.6-.75Z"
    fill="url(#arrow)"
    filter="url(#shadow)"
  />
  <path
    d="M41 41h5.5c1 0 1.5 1.18.77 1.9l-7.5 7.45a1.08 1.08 0 0 1-1.53 0l-7.5-7.45c-.73-.72-.22-1.9.78-1.9H37v-3.2c0-1.11.9-2 2-2h2c1.1 0 2 .9 2 2z"
    fill="url(#arrow)"
    opacity=".9"
  />
</svg>
